<?xml version="1.0" encoding="UTF-8"?><svg xmlns="http://www.w3.org/2000/svg" viewBox="0 0 110.78 69.73"><title>Post-it® logo</title><defs><style type="text/css">.cls-1{fill:#ffeba1;}.cls-2{fill:#ffd100;}</style></defs><g id="Layer_2"><g id="_2-Color_Logo"><polygon points="0 14.03 54.66 5.97 56.14 0 110.78 13.6 97.19 68.23 63.67 59.9 63.91 61.52 8.21 69.73 0 14.03"/><rect class="cls-1" x="5.52" y="11.34" width="52.86" height="52.86" transform="translate(-5.16 5.06) rotate(-8.38)"/><rect class="cls-2" x="50.23" y="7.69" width="52.86" height="52.86" transform="translate(25.05 100.27) rotate(-76.03)"/><path d="M20,32.51c1.47,0,2.54-.59,2.54-2.25s-2-2-3.37-2h-1v4.28H20M11.79,42.93V23.25h8.72c5.66,0,8.39,2.6,8.39,6.65,0,4.23-2.51,6.91-8.17,6.91H18.24v6.12Z"/><rect x="71.82" y="33.12" width="5.43" height="5.63"/><path d="M78.68,29.36h5.68V42.93H78.68Z"/><path d="M95.68,42.93c-7.45.4-8.36-.11-8.36-5.06V32.69h-2V29.41h2.11V25H93v4.45h2.73v3.28H93v4.39c0,1.31.19,1.78,1.78,1.78h.89v4.07"/><path d="M34.32,35.77c0,2.7,1,3.87,2.46,3.87s2.46-1.17,2.46-3.87c0-2.11-.93-3.69-2.4-3.61-1.94,0-2.52,2-2.52,3.61m2.59-7.57c5.05,0,8.16,3,8.16,7.43,0,5.25-3.55,7.7-8.14,7.7s-8.14-2.51-8.14-7.4,3.28-7.73,8.12-7.73"/><path d="M50.78,38.45a1.58,1.58,0,0,0,.6,1.31,2.27,2.27,0,0,0,1.4.44c.87,0,1.8-.27,1.8-1.29,0-2.29-8.77-.46-8.77-6,0-3.66,3.79-4.72,6.77-4.72s6.78.71,7.11,4.51H54.52a1.47,1.47,0,0,0-.54-1,1.78,1.78,0,0,0-1.15-.36c-1,0-1.61.3-1.61,1,0,2,9,.66,9,6,0,3-2.46,5-7.7,5-3.28,0-6.89-1-7.19-4.87h5.41"/><path d="M70.78,42.93c-7.46.4-8.36-.11-8.36-5.06V32.69h-2V29.41h2.1V25h5.6v4.45h2.73v3.28H68.1v4.39c0,1.31.2,1.78,1.78,1.78h.9v4.07"/><path d="M97.39,26.5c.3,0,.76.05.76-.39s-.29-.37-.55-.37H97v.76h.41m1,1.19h-.31l-.61-1H97v1h-.26V25.56h.94a.94.94,0,0,1,.52.1.55.55,0,0,1,.24.46c0,.42-.3.57-.68.59Zm.72-1.07a1.68,1.68,0,1,0-1.67,1.69,1.68,1.68,0,0,0,1.67-1.69m-3.59,0a1.91,1.91,0,1,1,1.92,1.92,1.92,1.92,0,0,1-1.92-1.92"/><rect x="78.68" y="22.49" width="5.68" height="5.8"/><path d="M80.46,46.43a.93.93,0,0,1,.58.86,1.09,1.09,0,0,1-1.23,1.06H78.69V44.77h1.13a1,1,0,0,1,1.06,1A.72.72,0,0,1,80.46,46.43Zm-.64-.2a.48.48,0,1,0,0-1h-.55v1Zm-.55.48v1.13h.55a.57.57,0,1,0,0-1.13Z"/><path d="M84.54,48.35h-.69L82.8,47h-.25v1.38H82V44.79h1.16c.71,0,1.24.31,1.25,1.1A1,1,0,0,1,83.46,47Zm-1.4-1.89c.4,0,.65-.2.65-.57s-.26-.57-.65-.57h-.59v1.14Z"/><path d="M86.33,44.77H87l1.29,3.58h-.61l-.4-1.08H86.05l-.38,1.08h-.62Zm.73,2-.33-1-.09-.36h0l-.08.36-.32,1Z"/><path d="M91.05,47.09l.24.53h0L91.23,47V44.77h.59v3.58h-.67L89.83,46l-.24-.53h0l.08.66v2.19h-.58V44.77h.67Z"/><path d="M95.92,46.51a1.68,1.68,0,0,1-1.73,1.84H93V44.77h1.22A1.64,1.64,0,0,1,95.92,46.51Zm-.58,0A1.13,1.13,0,0,0,94.2,45.3h-.65v2.52h.64C95,47.84,95.34,47.19,95.34,46.55Z"/></g></g></svg>